<svg width="1440" height="442" viewBox="0 0 1440 442" fill="none" xmlns="http://www.w3.org/2000/svg">
<g clip-path="url(#clip0_1559_4693)">
<path d="M-193.737 -93.7095L-332.887 57.1529C-352.768 78.7073 -362.187 107.902 -358.651 137.011L-331.321 362.007C-325.206 412.351 -282.374 450.146 -231.661 449.948L1770.03 442.147C1827.4 441.923 1872.82 393.579 1869.47 336.306L1843.69 -104.235C1840.1 -165.548 1782.61 -209.167 1722.59 -196.105L1652.68 -180.888C1625.09 -174.884 1603.52 -153.381 1597.42 -125.814L1572.4 -12.6948C1565.16 20.0353 1520.28 24.4085 1506.85 -6.30829C1493.38 -37.1512 1448.27 -32.578 1441.26 0.342239L1421.07 95.0947C1417.62 111.308 1394.87 112.351 1389.95 96.5219C1386.03 83.9242 1369.46 81.1266 1361.62 91.7404L1189.24 325.226C1162.28 361.742 1114.11 375.521 1071.92 358.786L901.969 291.375C883.557 284.072 863.39 282.401 844.026 286.576L639.982 330.562C621.402 334.567 602.314 326.445 592.316 310.281C581.394 292.622 559.79 284.751 540.068 291.245L442.695 323.309C432.602 326.632 422.044 328.326 411.419 328.326H234.843C194.678 328.326 167.553 287.318 183.269 250.355L195.102 222.524C212.649 181.256 167.085 141.673 128.675 164.817C95.5462 184.78 54.0078 157.674 58.9381 119.311L69.4365 37.6247C69.4365 18.6397 52.8673 3.90921 34.013 6.13199L-46.9482 15.6767C-50.0163 16.0384 -52.9986 16.9291 -55.7625 18.3091C-73.5408 27.186 -94.4471 14.2572 -94.4471 -5.61401V-54.9108C-94.4471 -107.015 -158.411 -132.009 -193.737 -93.7095Z" fill="#031A66"/>
</g>
<defs>
<clipPath id="clip0_1559_4693">
<rect width="1440" height="442" fill="white"/>
</clipPath>
</defs>
</svg>
