<svg width="166" height="24" viewBox="0 0 166 24" fill="none" xmlns="http://www.w3.org/2000/svg">
<path d="M47.884 15.6425C48.2702 16.7183 48.8353 17.5954 49.5795 18.2737C50.3286 18.924 51.3175 19.3575 52.5462 19.5742C53.4397 19.7317 54.33 19.7447 55.217 19.6132C56.1319 19.4866 56.9966 19.236 57.8113 18.8614C58.6588 18.4638 59.4234 17.9651 60.1049 17.3655C60.8144 16.7708 61.4246 16.0866 61.9353 15.3129L50.8354 13.3556L52.3279 9.29994L63.4278 11.2572C63.4574 11.0896 63.4845 10.936 63.5091 10.7964C63.5386 10.6289 63.5402 10.4564 63.5139 10.279C63.5416 8.81546 63.0684 7.58032 62.0942 6.57356C61.1529 5.5438 59.8864 4.88859 58.2947 4.60793C55.6977 4.15002 53.3325 4.82709 51.1991 6.63913L45.7538 5.67899C46.621 4.68019 47.5965 3.80128 48.6805 3.04226C49.7645 2.28325 50.9101 1.66466 52.1173 1.1865C53.3246 0.708349 54.5745 0.396087 55.8672 0.249718C57.1878 0.108275 58.5183 0.155725 59.8587 0.392068C61.3666 0.657954 62.7045 1.153 63.8725 1.87721C65.0454 2.57349 65.9998 3.44721 66.7358 4.49835C67.5047 5.52649 68.0206 6.68279 68.2836 7.96724C68.5745 9.25661 68.5944 10.6134 68.3433 12.0375C68.0036 13.9643 67.2597 15.7334 66.1118 17.345C64.9688 18.9285 63.5835 20.2535 61.9558 21.3197C60.3561 22.3909 58.5938 23.1599 56.6687 23.6266C54.7486 24.0655 52.8392 24.1175 50.9403 23.7826C48.3154 23.3198 46.2785 22.2984 44.8295 20.7185C43.4134 19.1155 42.6025 17.101 42.3969 14.675L47.884 15.6425Z" fill="#F3F3F6"/>
<path d="M90.4118 23.5631H84.7549V5.14649H74.377V23.5631H68.7202V18.0332C69.7894 16.3285 70.5052 14.4727 70.8564 12.4807C71.1593 10.7631 71.1451 9.07109 70.7781 7.4292C70.4423 5.80723 69.7831 4.32167 68.8021 3.00065C68.775 2.96229 68.7477 2.92418 68.7202 2.88622V0H90.4118V23.5631Z" fill="#F3F3F6"/>
<path d="M99.861 6.8478C99.861 8.26552 100.13 9.22955 100.669 9.73994C101.208 10.2503 102.243 10.5055 103.774 10.5055C105.022 10.5055 106.255 10.378 107.474 10.1228V0H113.131V23.5631H107.474V15.0991C106.397 15.3259 105.475 15.4819 104.71 15.567C103.973 15.6237 103.164 15.652 102.285 15.652C99.7051 15.652 97.7061 14.8864 96.2883 13.3552C94.8989 11.7957 94.2042 9.62657 94.2042 6.8478V0H99.861V6.8478Z" fill="#F3F3F6"/>
<path d="M123.347 15.567L133.895 0H139.637V23.5631H134.022V7.99616L123.474 23.5631H117.732V0H123.347V15.567Z" fill="#F3F3F6"/>
<path d="M149.889 10.8458L158.055 0H164.903L155.503 11.6965L165.414 23.5631H158.055L149.889 12.7172V23.5631H144.232V0H149.889V10.8458Z" fill="#F3F3F6"/>
<path d="M5.65686 10.8458L13.8231 0H20.6709L11.2712 11.6965L21.1813 23.5631H13.8231L5.65686 12.7172V23.5631H0V0H5.65686V10.8458Z" fill="#F3F3F6"/>
<path d="M40.8902 12.6154C40.8159 12.6697 40.7441 12.7283 40.6753 12.7912C40.0905 13.3256 39.7871 14.1013 39.854 14.8906C40.0993 17.784 41.0888 20.3386 42.917 22.408C42.9274 22.4199 42.9381 22.4317 42.9487 22.4434C43.3203 22.8485 43.7177 23.2213 44.1391 23.5631H39.4155L33.4184 7.91112L27.4213 23.5631H21.3816L31.2067 0H35.63L40.8902 12.6154Z" fill="#F3F3F6"/>
</svg>
